<svg id="Layer_4" data-name="Layer 4" xmlns="http://www.w3.org/2000/svg" viewBox="0 0 821.67 685.46"><defs><style>.cls-1{fill:none;stroke:#fff;stroke-linecap:round;stroke-linejoin:round;stroke-width:20px;}</style></defs><path class="cls-1" d="M149.73,472.4a85.84,85.84,0,0,1-49.31-19.29c95.84-14.3,177-92.18,273.84-90.88,1.41,25.31-2.83,61.08-8.54,85.78-23.27,100.71-47.86,191.31-83.35,286.45-14.61,39.16-25.26,76.59-50.13,110.18-8.55,11.54-17.25,23-31.55,24.27-17.94,1.54-33.06-8.33-41.52-24.23-28.35-53.33-7.45-119.85,37.47-160.22S306,622.85,363.32,603.93A4145.92,4145.92,0,0,0,828.8,418.43c19.34-9.09,39.15-18.74,53.32-34.74,34.83-39.32,21.17-105.9-18.3-140.57s-96.08-42.86-148.43-38.39C620.85,212.79,530,258.42,467.13,329.47,440,360.08,417.18,398,418.49,438.83c3.35-4.64,11.39,1.2,10.36,6.83s-6.28,9.6-11.41,12.15c-34.89,17.37-51.39,36.8-52,62.43-.11,4.49,4.21,20.77,7.55,21.3,19.33,3.05,27.37-14.07,38.59-30.11q26.27-37.59,52.54-75.19a245.44,245.44,0,0,0-27.2,65.48c-1.77,7-1.28,14,.28,21,3.33,15,16.45,20.76,30.84,3.94,7.62-8.9,14.7-18,19.92-28.47,19.78-39.76,48.22-76.77,87.33-97.79-4.62,2.65,2.1,12.14-2.08,15.43-25.9,20.42-53.77,45.89-55,78.92,15.78,7.67,33.12-6.39,44.67-19.6,22.31-25.48,49-56,68.2-83.86-17.26,19-34.44,47-38,72.41-.41,2.94-.7,6.06.5,8.78,3.34,7.58,14.48,6.44,22.06,3.09,33.11-14.62,47.78-50.23,59.75-84.38,7.12-20.32-4.6-33-23.48-20.73C683.16,331.8,730.45,235.1,758,242.72c30,8.32-11.87,89.66-34.2,122.51C748.77,335,790,319,828.87,324.46c3,.43,6.34,1.15,8.18,3.59,1.62,2.14,1.67,5.05,1.45,7.72-1.5,18.2-6,33.33-18.13,46.94-33.59,37.55-86.36,64.42-135.92,73.5" transform="translate(-90.42 -193.61)"/></svg>